#!OML:ASF X:\für Bonn\!DataBase\2005_08_10_Bjorn_Final\c3d\bjorn.ASF
:FULLY-SPECIFIED
:DEGREES
47
root -11.0563 18.3794 0.758108 739.395 83.1596 26.3955
lowerback -0.504303 -2.28975 6.04789
upperback 10.7875 -3.44909 4.73038
thorax 11.8624 -1.16011 1.45018
lowerneck 7.13811 2.02445 2.59756
upperneck 19.0617 6.12589 -15.2653
head 5.02623 2.8781 -5.11833
rclavicle 1.03368e-014 -2.54444e-014
rhumerus -17.1332 -4.22294 -78.0026
rradius 50.4246
rwrist -0.502303
rhand -10.4254 12.9399
rfingers 7.12502
rthumb 15.574 -16.4531
lclavicle 1.03368e-014 -2.54444e-014
lhumerus -30.1769 -9.76489 67.3274
lradius 40.4078
lwrist -19.4279
lhand -31.75 -13.9396
lfingers 7.12502
lthumb -5.0073 15.9812
rfemur -5.66181 6.91081 17.6775
rtibia 43.7917
rfoot -28.7365 5.98643
rtoes -12.2262
lfemur -38.5481 9.11087 -13.8409
ltibia 47.9995
lfoot 1.85066 -2.48273
ltoes -22.0186
48
root -11.0049 18.3606 0.759365 738.309 83.0798 25.2138
lowerback -0.595728 -2.34681 5.97139
upperback 10.8249 -3.53661 4.77961
thorax 11.9696 -1.21008 1.53581
lowerneck 7.20801 2.10636 2.49094
upperneck 18.9068 6.20921 -15.2944
head 4.97351 2.917 -5.10638
rclavicle -3.97569e-015 -4.92986e-014
rhumerus -17.102 -4.05938 -78.0654
rradius 50.4654
rwrist -0.546552
rhand -10.5176 12.9004
rfingers 7.12502
rthumb 15.4851 -16.4995
lclavicle -3.97569e-015 -4.92986e-014
lhumerus -30.3077 -9.83931 67.3453
lradius 40.407
lwrist -19.5004
lhand -31.7097 -13.9666
lfingers 7.12502
lthumb -4.96847 15.9551
rfemur -5.6722 7.04851 17.8104
rtibia 43.9845
rfoot -28.9929 5.97527
rtoes -12.2149
lfemur -38.1577 9.0221 -13.543
ltibia 46.9782
lfoot 2.61891 -2.50148
ltoes -21.9558
49
root -10.9535 18.3412 0.76058 737.115 83.0045 23.9049
lowerback -0.688617 -2.39364 5.92399
upperback 10.8497 -3.61149 4.81856
thorax 12.0612 -1.25129 1.59489
lowerneck 7.30574 2.16724 2.42441
upperneck 18.736 6.26278 -15.335
head 4.90907 2.94551 -5.10665
rclavicle 2.38542e-014 -4.77083e-015
rhumerus -17.0898 -3.9386 -78.1354
rradius 50.4572
rwrist -0.518582
rhand -10.6448 12.9417
rfingers 7.12502
rthumb 15.3626 -16.4675
lclavicle 2.38542e-014 -4.77083e-015
lhumerus -30.4194 -9.87943 67.345
lradius 40.355
lwrist -19.621
lhand -31.6571 -14.0294
lfingers 7.12502
lthumb -4.91767 15.8935
rfemur -5.70307 7.15369 17.9605
rtibia 44.1702
rfoot -29.2588 5.95938
rtoes -12.4283
lfemur -37.7832 8.94438 -13.2313
ltibia 45.9742
lfoot 3.34162 -2.57201
ltoes -22.2231
50
root -10.9008 18.3234 0.760839 735.976 82.9359 22.6701
lowerback -0.79265 -2.44485 5.86274
upperback 10.9076 -3.69321 4.8614
thorax 12.2004 -1.29543 1.66572
lowerneck 7.36041 2.23594 2.34431
upperneck 18.5531 6.3251 -15.3828
head 4.84894 2.9753 -5.10567
rclavicle 0 2.54444e-014
rhumerus -17.0513 -3.79188 -78.1859
rradius 50.4612
rwrist -0.564406
rhand -10.7713 12.9078
rfingers 7.12502
rthumb 15.2408 -16.5108
lclavicle 0 2.54444e-014
lhumerus -30.4915 -9.91056 67.3556
lradius 40.3148
lwrist -19.7055
lhand -31.6558 -14.1487
lfingers 7.12502
lthumb -4.91642 15.7742
rfemur -5.69561 7.23541 18.0944
rtibia 44.3208
rfoot -29.4858 5.99985
rtoes -12.5733
lfemur -37.3748 8.81961 -12.9095
ltibia 44.9829
lfoot 3.9006 -2.57534
ltoes -22.512
51
root -10.8479 18.3064 0.760235 734.837 82.8458 21.4016
lowerback -0.898974 -2.48156 5.80835
upperback 10.9392 -3.75556 4.89873
thorax 12.3098 -1.33092 1.72775
lowerneck 7.44204 2.29388 2.30161
upperneck 18.3806 6.37621 -15.4364
head 4.78724 3.00313 -5.11429
rclavicle -1.51076e-014 -7.4743e-014
rhumerus -17.0484 -3.67869 -78.2373
rradius 50.4462
rwrist -0.61141
rhand -10.835 12.8897
rfingers 7.12502
rthumb 15.1795 -16.5335
lclavicle -1.51076e-014 -7.4743e-014
lhumerus -30.6092 -10.0025 67.3817
lradius 40.3207
lwrist -19.7228
lhand -31.6061 -14.1711
lfingers 7.12502
lthumb -4.8684 15.7529
rfemur -5.72142 7.24995 18.201
rtibia 44.451
rfoot -29.6958 6.07875
rtoes -12.8027
lfemur -37.0099 8.72574 -12.6046
ltibia 44.0245
lfoot 4.36498 -2.57533
ltoes -23.1676
52
root -10.7938 18.2901 0.759531 733.587 82.7714 20.0565
lowerback -0.977184 -2.51719 5.76685
upperback 10.9859 -3.81428 4.94107
thorax 12.4198 -1.36293 1.78981
lowerneck 7.50902 2.34142 2.27838
upperneck 18.2194 6.41933 -15.5108
head 4.73153 3.02681 -5.13323
rclavicle -7.15625e-015 4.6118e-014
rhumerus -17.0605 -3.57514 -78.2842
rradius 50.431
rwrist -0.672574
rhand -10.9028 12.9122
rfingers 7.12502
rthumb 15.1141 -16.5159
lclavicle -7.15625e-015 4.6118e-014
lhumerus -30.6873 -10.1257 67.4375
lradius 40.2821
lwrist -19.651
lhand -31.6574 -14.3012
lfingers 7.12502
lthumb -4.91791 15.6217
rfemur -5.67269 7.24986 18.326
rtibia 44.5311
rfoot -29.9058 6.199
rtoes -13.0303
lfemur -36.5745 8.59712 -12.2628
ltibia 43.0953
lfoot 4.74732 -2.50171
ltoes -23.2119
53
root -10.7378 18.2775 0.758005 732.176 82.6532 18.5689
lowerback -1.0408 -2.53275 5.75056
upperback 11.0456 -3.84552 4.97077
thorax 12.5341 -1.37799 1.82794
lowerneck 7.58077 2.37467 2.27594
upperneck 18.0679 6.4449 -15.5849
head 4.67674 3.04327 -5.15644
rclavicle -7.95139e-016 4.77083e-015
rhumerus -17.1087 -3.51268 -78.3496
rradius 50.4241
rwrist -0.721585
rhand -10.9731 12.9142
rfingers 7.12502
rthumb 15.0464 -16.519
lclavicle -7.95139e-016 4.77083e-015
lhumerus -30.7758 -10.2794 67.4819
lradius 40.2903
lwrist -19.5912
lhand -31.6055 -14.3048
lfingers 7.12502
lthumb -4.86782 15.6193
rfemur -5.57375 7.25639 18.4484
rtibia 44.5673
rfoot -30.0967 6.37429
rtoes -13.1658
lfemur -36.0763 8.50203 -11.9169
ltibia 42.2006
lfoot 5.03651 -2.37223
ltoes -23.2595
54
root -10.6809 18.2675 0.755309 730.906 82.562 17.1949
lowerback -1.12649 -2.54817 5.7498
upperback 11.092 -3.87899 4.98592
thorax 12.6443 -1.39226 1.84018
lowerneck 7.70478 2.4084 2.29357
upperneck 17.8554 6.4546 -15.6339
head 4.59271 3.05824 -5.17594
rclavicle -3.18055e-014 -3.33958e-014
rhumerus -17.1809 -3.50702 -78.4219
rradius 50.4014
rwrist -0.759549
rhand -10.9833 12.9426
rfingers 7.12502
rthumb 15.0366 -16.4914
lclavicle -3.18055e-014 -3.33958e-014
lhumerus -30.854 -10.4566 67.5215
lradius 40.2787
lwrist -19.483
lhand -31.511 -14.4331
lfingers 7.12502
lthumb -4.77653 15.4931
rfemur -5.48464 7.22253 18.5501
rtibia 44.5553
rfoot -30.23 6.61471
rtoes -13.0463
lfemur -35.6157 8.38942 -11.5878
ltibia 41.3347
lfoot 5.28116 -2.25305
ltoes -23.2015
55
root -10.6225 18.2591 0.751312 729.463 82.4269 15.6542
lowerback -1.2043 -2.5425 5.77152
upperback 11.1431 -3.88525 5.00694
thorax 12.755 -1.39124 1.85004
lowerneck 7.8036 2.42315 2.31162
upperneck 17.718 6.45687 -15.7
head 4.5358 3.06625 -5.20159
rclavicle -2.22639e-014 2.8625e-014
rhumerus -17.2712 -3.51099 -78.4707
rradius 50.3875
rwrist -0.810116
rhand -10.9488 12.9642
rfingers 7.12502
rthumb 15.0699 -16.4673
lclavicle -2.22639e-014 2.8625e-014
lhumerus -30.8999 -10.5608 67.5719
lradius 40.2143
lwrist -19.4673
lhand -31.3464 -14.5965
lfingers 7.12502
lthumb -4.61761 15.3332
rfemur -5.36575 7.2046 18.6647
rtibia 44.5019
rfoot -30.3507 6.83445
rtoes -13.246
lfemur -35.1443 8.26971 -11.2331
ltibia 40.5057
lfoot 5.48904 -2.0752
ltoes -22.9682
56
root -10.5643 18.25 0.745942 728.105 82.3075 14.1918
lowerback -1.27893 -2.53953 5.77177
upperback 11.204 -3.89417 5.04126
thorax 12.878 -1.39394 1.88661
lowerneck 7.87223 2.43451 2.31388
upperneck 17.5622 6.44554 -15.742
head 4.4761 3.06613 -5.21602
rclavicle 2.06736e-014 -1.08139e-013
rhumerus -17.3571 -3.4848 -78.5028
rradius 50.401
rwrist -0.897653
rhand -10.9658 12.9577
rfingers 7.12502
rthumb 15.0535 -16.475
lclavicle 2.06736e-014 -1.08139e-013
lhumerus -30.9286 -10.6944 67.6374
lradius 40.2005
lwrist -19.4315
lhand -31.1399 -14.7145
lfingers 7.12502
lthumb -4.41821 15.2194
rfemur -5.23674 7.14968 18.7602
rtibia 44.4194
rfoot -30.4647 7.13469
rtoes -13.2622
lfemur -34.7101 8.16438 -10.899
ltibia 39.7269
lfoot 5.68835 -1.91287
ltoes -22.6149
57
root -10.5045 18.2416 0.739167 726.627 82.1991 12.6238
lowerback -1.34881 -2.544 5.80847
upperback 11.2846 -3.91483 5.06716
thorax 13.0193 -1.39678 1.89341
lowerneck 7.93056 2.45321 2.3394
upperneck 17.3828 6.44383 -15.8071
head 4.4128 3.07135 -5.24134
rclavicle -1.11319e-014 1.43125e-014
rhumerus -17.4163 -3.50668 -78.5695
rradius 50.364
rwrist -0.954492
rhand -10.987 12.999
rfingers 7.12502
rthumb 15.033 -16.4352
lclavicle -1.11319e-014 1.43125e-014
lhumerus -30.908 -10.7685 67.6799
lradius 40.1586
lwrist -19.4173
lhand -30.9159 -14.7173
lfingers 7.12502
lthumb -4.20191 15.221
rfemur -5.06752 7.09169 18.8856
rtibia 44.3066
rfoot -30.5478 7.37133
rtoes -13.2733
lfemur -34.2487 8.01705 -10.5423
ltibia 39.006
lfoot 5.77446 -1.73805
ltoes -22.2908
58
root -10.4444 18.2344 0.731481 725.06 82.0641 10.9259
lowerback -1.43425 -2.53224 5.88084
upperback 11.3397 -3.918 5.09433
thorax 13.1382 -1.38874 1.88282
lowerneck 7.98869 2.46545 2.32758
upperneck 17.238 6.4334 -15.8356
head 4.35792 3.07055 -5.24879
rclavicle -2.62396e-014 -6.20208e-014
rhumerus -17.5378 -3.51496 -78.6135
rradius 50.3795
rwrist -0.997364
rhand -10.9425 12.9874
rfingers 7.12502
rthumb 15.0759 -16.4436
lclavicle -2.62396e-014 -6.20208e-014
lhumerus -30.9096 -10.7527 67.7055
lradius 40.1223
lwrist -19.5062
lhand -30.7062 -14.6288
lfingers 7.12502
lthumb -3.99947 15.3134
rfemur -4.94037 7.0611 19.0216
rtibia 44.1684
rfoot -30.6253 7.66224
rtoes -13.2654
lfemur -33.847 7.93639 -10.1885
ltibia 38.3545
lfoot 5.85257 -1.61911
ltoes -22.1133
59
root -10.3839 18.2284 0.722452 723.683 81.9456 9.43714
lowerback -1.49262 -2.52582 5.92176
upperback 11.3987 -3.92279 5.11897
thorax 13.2464 -1.38466 1.88754
lowerneck 8.05898 2.47163 2.34157
upperneck 17.0866 6.41515 -15.8717
head 4.29888 3.06801 -5.26362
rclavicle 3.65764e-014 -6.36111e-014
rhumerus -17.6466 -3.54292 -78.6783
rradius 50.3683
rwrist -1.04239
rhand -10.978 12.9275
rfingers 7.12502
rthumb 15.0417 -16.5061
lclavicle 3.65764e-014 -6.36111e-014
lhumerus -30.899 -10.7995 67.7562
lradius 40.0644
lwrist -19.6045
lhand -30.6161 -14.4678
lfingers 7.12502
lthumb -3.91243 15.476
rfemur -4.77538 7.02488 19.1362
rtibia 44.012
rfoot -30.6863 7.94517
rtoes -13.264
lfemur -33.4447 7.79922 -9.86062
ltibia 37.7515
lfoot 5.88923 -1.46261
ltoes -21.7516
